<?xml version="1.0" encoding="UTF-8" standalone="no"?>
<svg xmlns="http://www.w3.org/2000/svg" version="1.1" viewBox="0 0 458 458">
<g stroke-width="2.00" fill="none" stroke-linecap="butt">
<path stroke="#000000" vector-effect="non-scaling-stroke" d="
  M 320.28 137.18
  C 316.98 84.29 272.67 45.60 219.81 51.06
  C 174.20 55.77 139.18 90.99 136.37 137.03
  A 0.56 0.56 0.0 0 1 135.84 137.56
  C 121.14 138.17 106.93 142.78 101.67 157.98
  C 97.36 170.45 104.76 185.17 104.76 195.50
  Q 104.74 284.63 104.76 373.77
  C 104.76 380.94 106.70 390.89 96.17 391.57
  Q 93.40 391.75 90.61 391.97
  A 0.70 0.69 -89.5 0 0 89.97 392.61
  L 89.70 396.35
  A 0.65 0.65 0.0 0 0 90.35 397.05
  L 173.56 396.88
  A 0.69 0.69 0.0 0 0 174.25 396.19
  L 174.25 392.36
  A 0.54 0.54 0.0 0 0 173.70 391.82
  C 154.22 392.05 157.63 383.91 157.54 369.00
  Q 157.30 327.86 157.51 286.64
  A 0.45 0.45 0.0 0 1 158.34 286.41
  L 224.36 393.62
  A 1.16 1.15 -44.9 0 0 226.33 393.62
  Q 259.82 339.11 294.33 285.24
  A 0.45 0.44 -79.6 0 1 294.61 285.04
  Q 295.15 284.92 295.15 285.50
  Q 295.25 333.34 295.24 381.17
  C 295.24 391.27 288.91 392.27 280.40 392.02
  A 0.67 0.66 -86.8 0 0 279.72 392.64
  L 279.45 396.33
  A 0.63 0.62 2.1 0 0 280.08 397.00
  L 363.49 397.00
  A 0.51 0.51 0.0 0 0 364.00 396.45
  L 363.71 392.52
  A 1.17 1.17 0.0 0 0 362.45 391.44
  C 353.89 392.14 348.25 389.68 348.25 380.32
  Q 348.25 292.41 348.30 204.50
  C 348.30 199.11 348.47 194.34 350.09 189.00
  Q 353.73 177.08 354.49 173.51
  C 359.33 150.93 341.56 137.31 320.82 137.68
  A 0.53 0.53 0.0 0 1 320.28 137.18"
/>
<path stroke="#000000" vector-effect="non-scaling-stroke" d="
  M 196.39 210.85
  Q 194.97 212.20 191.11 215.35
  C 181.19 223.45 178.61 237.79 183.48 249.37
  C 187.72 259.44 202.37 269.08 211.71 274.20
  C 218.61 277.98 225.79 277.03 232.77 276.99
  C 240.09 276.95 244.76 275.73 250.54 272.02
  Q 259.43 266.30 266.55 260.06
  C 281.60 246.84 280.03 222.73 262.43 212.60
  A 1.73 1.73 0.0 0 1 262.22 209.74
  C 271.93 202.14 280.62 193.79 286.60 182.93
  C 291.97 173.16 293.16 160.18 284.01 152.59
  C 271.69 142.38 248.56 152.36 236.51 159.53
  Q 229.09 163.96 222.00 160.03
  C 210.13 153.45 193.25 145.08 180.04 149.15
  C 171.19 151.88 166.37 159.86 166.80 169.03
  C 167.43 182.66 180.34 197.77 191.06 205.95
  Q 193.76 208.01 196.37 210.18
  A 0.45 0.44 -47.0 0 1 196.39 210.85"
/>
<path stroke="#000000" vector-effect="non-scaling-stroke" d="
  M 113.55 169.18
  C 113.47 163.44 116.93 159.90 122.53 158.76
  C 140.79 155.05 147.66 169.24 153.82 183.27
  C 154.90 185.72 156.46 183.07 156.28 181.49
  C 154.42 165.07 143.20 141.04 122.28 151.00
  C 111.45 156.16 105.76 167.86 112.81 178.87
  C 114.98 182.27 118.05 183.46 120.97 185.52
  A 1.51 1.46 9.5 0 1 121.53 186.28
  C 126.44 201.80 145.21 220.82 162.01 208.50
  Q 163.70 207.25 163.92 205.50
  A 0.38 0.38 0.0 0 0 163.48 205.07
  Q 158.90 205.85 157.24 205.96
  C 144.09 206.91 133.99 195.35 130.71 183.49
  Q 129.16 177.88 127.63 172.29
  C 126.01 166.34 118.14 167.56 114.01 169.48
  A 0.33 0.32 77.8 0 1 113.55 169.18"
/>
<path stroke="#000000" vector-effect="non-scaling-stroke" d="
  M 342.30 169.63
  C 338.47 166.72 331.97 165.97 330.19 171.72
  C 327.80 179.41 326.51 186.21 321.51 193.50
  Q 311.30 208.38 293.32 205.17
  A 0.39 0.38 -88.4 0 0 292.87 205.60
  Q 293.07 207.00 294.43 208.07
  C 311.09 221.15 330.54 202.36 335.52 186.61
  A 1.64 1.61 79.8 0 1 336.06 185.82
  C 338.16 184.20 340.45 183.17 342.02 181.16
  C 359.24 159.04 324.40 134.72 308.70 158.95
  Q 301.71 169.73 300.66 182.27
  C 300.63 182.64 301.24 183.83 301.49 183.87
  A 1.73 1.71 -73.0 0 0 303.27 182.91
  C 309.97 169.06 316.79 154.99 334.89 158.59
  Q 343.69 160.33 342.75 169.43
  Q 342.70 169.93 342.30 169.63"
/>
<path stroke="#000000" vector-effect="non-scaling-stroke" d="
  M 205.2529 193.6799
  A 15.55 14.94 94.6 0 0 221.3919 179.3782
  A 15.55 14.94 94.6 0 0 207.7471 162.6801
  A 15.55 14.94 94.6 0 0 191.6081 176.9818
  A 15.55 14.94 94.6 0 0 205.2529 193.6799"
/>
<path stroke="#000000" vector-effect="non-scaling-stroke" d="
  M 250.6122 193.8323
  A 15.68 15.05 96.4 0 0 267.3162 179.9276
  A 15.68 15.05 96.4 0 0 254.1078 162.6677
  A 15.68 15.05 96.4 0 0 237.4038 176.5724
  A 15.68 15.05 96.4 0 0 250.6122 193.8323"
/>
<path stroke="#000000" vector-effect="non-scaling-stroke" d="
  M 223.07 206.67
  C 218.46 203.72 213.15 209.16 218.01 213.34
  Q 222.70 217.39 225.46 222.78
  A 0.37 0.37 0.0 0 0 226.16 222.66
  C 226.80 218.17 226.96 209.16 223.07 206.67"
/>
<path stroke="#000000" vector-effect="non-scaling-stroke" d="
  M 239.90 213.41
  C 247.01 207.51 233.69 200.70 231.61 211.53
  Q 230.57 216.97 230.96 222.59
  A 0.68 0.68 0.0 0 0 232.24 222.86
  Q 235.07 217.42 239.90 213.41"
/>
<path stroke="#000000" vector-effect="non-scaling-stroke" d="
  M 265.69 244.28
  C 243.02 243.58 220.23 243.59 197.56 244.10
  Q 194.88 244.16 192.24 244.88
  A 1.07 1.07 0.0 0 0 191.54 245.47
  C 190.22 248.44 191.76 249.88 194.74 249.93
  Q 229.72 250.52 264.73 250.05
  A 1.40 1.40 0.0 0 0 265.72 249.64
  Q 267.12 248.25 267.27 246.03
  A 1.64 1.63 3.0 0 0 265.69 244.28"
/>
<path stroke="#000000" vector-effect="non-scaling-stroke" d="
  M 212.10 170.14
  C 203.68 164.41 192.42 175.57 198.27 179.48
  A 0.44 0.43 -61.2 0 0 198.91 179.29
  C 199.61 177.64 199.93 175.40 201.28 174.20
  C 207.48 168.69 212.93 174.34 214.53 180.67
  A 0.37 0.37 0.0 0 0 215.09 180.88
  C 218.67 178.48 214.64 171.87 212.10 170.14"
/>
<path stroke="#000000" vector-effect="non-scaling-stroke" d="
  M 261.80 174.87
  C 255.74 160.02 237.03 174.21 243.65 180.24
  A 0.46 0.46 0.0 0 0 244.34 180.16
  C 245.24 178.85 245.37 176.98 246.06 175.84
  C 249.87 169.49 258.45 172.40 259.89 179.08
  A 0.79 0.79 0.0 0 0 260.49 179.68
  C 262.73 180.15 262.36 176.22 261.80 174.87"
/>
</g>
<path fill="#FFFFFF" d="
  M 0.00 0.00
  L 458.00 0.00
  L 458.00 458.00
  L 0.00 458.00
  L 0.00 0.00
  Z
  M 320.28 137.18
  C 316.98 84.29 272.67 45.60 219.81 51.06
  C 174.20 55.77 139.18 90.99 136.37 137.03
  A 0.56 0.56 0.0 0 1 135.84 137.56
  C 121.14 138.17 106.93 142.78 101.67 157.98
  C 97.36 170.45 104.76 185.17 104.76 195.50
  Q 104.74 284.63 104.76 373.77
  C 104.76 380.94 106.70 390.89 96.17 391.57
  Q 93.40 391.75 90.61 391.97
  A 0.70 0.69 -89.5 0 0 89.97 392.61
  L 89.70 396.35
  A 0.65 0.65 0.0 0 0 90.35 397.05
  L 173.56 396.88
  A 0.69 0.69 0.0 0 0 174.25 396.19
  L 174.25 392.36
  A 0.54 0.54 0.0 0 0 173.70 391.82
  C 154.22 392.05 157.63 383.91 157.54 369.00
  Q 157.30 327.86 157.51 286.64
  A 0.45 0.45 0.0 0 1 158.34 286.41
  L 224.36 393.62
  A 1.16 1.15 -44.9 0 0 226.33 393.62
  Q 259.82 339.11 294.33 285.24
  A 0.45 0.44 -79.6 0 1 294.61 285.04
  Q 295.15 284.92 295.15 285.50
  Q 295.25 333.34 295.24 381.17
  C 295.24 391.27 288.91 392.27 280.40 392.02
  A 0.67 0.66 -86.8 0 0 279.72 392.64
  L 279.45 396.33
  A 0.63 0.62 2.1 0 0 280.08 397.00
  L 363.49 397.00
  A 0.51 0.51 0.0 0 0 364.00 396.45
  L 363.71 392.52
  A 1.17 1.17 0.0 0 0 362.45 391.44
  C 353.89 392.14 348.25 389.68 348.25 380.32
  Q 348.25 292.41 348.30 204.50
  C 348.30 199.11 348.47 194.34 350.09 189.00
  Q 353.73 177.08 354.49 173.51
  C 359.33 150.93 341.56 137.31 320.82 137.68
  A 0.53 0.53 0.0 0 1 320.28 137.18
  Z"
/>
<path fill="#000000" d="
  M 320.82 137.68
  C 341.56 137.31 359.33 150.93 354.49 173.51
  Q 353.73 177.08 350.09 189.00
  C 348.47 194.34 348.30 199.11 348.30 204.50
  Q 348.25 292.41 348.25 380.32
  C 348.25 389.68 353.89 392.14 362.45 391.44
  A 1.17 1.17 0.0 0 1 363.71 392.52
  L 364.00 396.45
  A 0.51 0.51 0.0 0 1 363.49 397.00
  L 280.08 397.00
  A 0.63 0.62 2.1 0 1 279.45 396.33
  L 279.72 392.64
  A 0.67 0.66 -86.8 0 1 280.40 392.02
  C 288.91 392.27 295.24 391.27 295.24 381.17
  Q 295.25 333.34 295.15 285.50
  Q 295.15 284.92 294.61 285.04
  A 0.45 0.44 -79.6 0 0 294.33 285.24
  Q 259.82 339.11 226.33 393.62
  A 1.16 1.15 -44.9 0 1 224.36 393.62
  L 158.34 286.41
  A 0.45 0.45 0.0 0 0 157.51 286.64
  Q 157.30 327.86 157.54 369.00
  C 157.63 383.91 154.22 392.05 173.70 391.82
  A 0.54 0.54 0.0 0 1 174.25 392.36
  L 174.25 396.19
  A 0.69 0.69 0.0 0 1 173.56 396.88
  L 90.35 397.05
  A 0.65 0.65 0.0 0 1 89.70 396.35
  L 89.97 392.61
  A 0.70 0.69 -89.5 0 1 90.61 391.97
  Q 93.40 391.75 96.17 391.57
  C 106.70 390.89 104.76 380.94 104.76 373.77
  Q 104.74 284.63 104.76 195.50
  C 104.76 185.17 97.36 170.45 101.67 157.98
  C 106.93 142.78 121.14 138.17 135.84 137.56
  A 0.56 0.56 0.0 0 0 136.37 137.03
  C 139.18 90.99 174.20 55.77 219.81 51.06
  C 272.67 45.60 316.98 84.29 320.28 137.18
  A 0.53 0.53 0.0 0 0 320.82 137.68
  Z
  M 196.39 210.85
  Q 194.97 212.20 191.11 215.35
  C 181.19 223.45 178.61 237.79 183.48 249.37
  C 187.72 259.44 202.37 269.08 211.71 274.20
  C 218.61 277.98 225.79 277.03 232.77 276.99
  C 240.09 276.95 244.76 275.73 250.54 272.02
  Q 259.43 266.30 266.55 260.06
  C 281.60 246.84 280.03 222.73 262.43 212.60
  A 1.73 1.73 0.0 0 1 262.22 209.74
  C 271.93 202.14 280.62 193.79 286.60 182.93
  C 291.97 173.16 293.16 160.18 284.01 152.59
  C 271.69 142.38 248.56 152.36 236.51 159.53
  Q 229.09 163.96 222.00 160.03
  C 210.13 153.45 193.25 145.08 180.04 149.15
  C 171.19 151.88 166.37 159.86 166.80 169.03
  C 167.43 182.66 180.34 197.77 191.06 205.95
  Q 193.76 208.01 196.37 210.18
  A 0.45 0.44 -47.0 0 1 196.39 210.85
  Z
  M 113.55 169.18
  C 113.47 163.44 116.93 159.90 122.53 158.76
  C 140.79 155.05 147.66 169.24 153.82 183.27
  C 154.90 185.72 156.46 183.07 156.28 181.49
  C 154.42 165.07 143.20 141.04 122.28 151.00
  C 111.45 156.16 105.76 167.86 112.81 178.87
  C 114.98 182.27 118.05 183.46 120.97 185.52
  A 1.51 1.46 9.5 0 1 121.53 186.28
  C 126.44 201.80 145.21 220.82 162.01 208.50
  Q 163.70 207.25 163.92 205.50
  A 0.38 0.38 0.0 0 0 163.48 205.07
  Q 158.90 205.85 157.24 205.96
  C 144.09 206.91 133.99 195.35 130.71 183.49
  Q 129.16 177.88 127.63 172.29
  C 126.01 166.34 118.14 167.56 114.01 169.48
  A 0.33 0.32 77.8 0 1 113.55 169.18
  Z
  M 342.30 169.63
  C 338.47 166.72 331.97 165.97 330.19 171.72
  C 327.80 179.41 326.51 186.21 321.51 193.50
  Q 311.30 208.38 293.32 205.17
  A 0.39 0.38 -88.4 0 0 292.87 205.60
  Q 293.07 207.00 294.43 208.07
  C 311.09 221.15 330.54 202.36 335.52 186.61
  A 1.64 1.61 79.8 0 1 336.06 185.82
  C 338.16 184.20 340.45 183.17 342.02 181.16
  C 359.24 159.04 324.40 134.72 308.70 158.95
  Q 301.71 169.73 300.66 182.27
  C 300.63 182.64 301.24 183.83 301.49 183.87
  A 1.73 1.71 -73.0 0 0 303.27 182.91
  C 309.97 169.06 316.79 154.99 334.89 158.59
  Q 343.69 160.33 342.75 169.43
  Q 342.70 169.93 342.30 169.63
  Z"
/>
<path fill="#FFFFFF" d="
  M 196.37 210.18
  Q 193.76 208.01 191.06 205.95
  C 180.34 197.77 167.43 182.66 166.80 169.03
  C 166.37 159.86 171.19 151.88 180.04 149.15
  C 193.25 145.08 210.13 153.45 222.00 160.03
  Q 229.09 163.96 236.51 159.53
  C 248.56 152.36 271.69 142.38 284.01 152.59
  C 293.16 160.18 291.97 173.16 286.60 182.93
  C 280.62 193.79 271.93 202.14 262.22 209.74
  A 1.73 1.73 0.0 0 0 262.43 212.60
  C 280.03 222.73 281.60 246.84 266.55 260.06
  Q 259.43 266.30 250.54 272.02
  C 244.76 275.73 240.09 276.95 232.77 276.99
  C 225.79 277.03 218.61 277.98 211.71 274.20
  C 202.37 269.08 187.72 259.44 183.48 249.37
  C 178.61 237.79 181.19 223.45 191.11 215.35
  Q 194.97 212.20 196.39 210.85
  A 0.45 0.44 -47.0 0 0 196.37 210.18
  Z
  M 205.2529 193.6799
  A 15.55 14.94 94.6 0 0 221.3919 179.3782
  A 15.55 14.94 94.6 0 0 207.7471 162.6801
  A 15.55 14.94 94.6 0 0 191.6081 176.9818
  A 15.55 14.94 94.6 0 0 205.2529 193.6799
  Z
  M 250.6122 193.8323
  A 15.68 15.05 96.4 0 0 267.3162 179.9276
  A 15.68 15.05 96.4 0 0 254.1078 162.6677
  A 15.68 15.05 96.4 0 0 237.4038 176.5724
  A 15.68 15.05 96.4 0 0 250.6122 193.8323
  Z
  M 223.07 206.67
  C 218.46 203.72 213.15 209.16 218.01 213.34
  Q 222.70 217.39 225.46 222.78
  A 0.37 0.37 0.0 0 0 226.16 222.66
  C 226.80 218.17 226.96 209.16 223.07 206.67
  Z
  M 239.90 213.41
  C 247.01 207.51 233.69 200.70 231.61 211.53
  Q 230.57 216.97 230.96 222.59
  A 0.68 0.68 0.0 0 0 232.24 222.86
  Q 235.07 217.42 239.90 213.41
  Z
  M 265.69 244.28
  C 243.02 243.58 220.23 243.59 197.56 244.10
  Q 194.88 244.16 192.24 244.88
  A 1.07 1.07 0.0 0 0 191.54 245.47
  C 190.22 248.44 191.76 249.88 194.74 249.93
  Q 229.72 250.52 264.73 250.05
  A 1.40 1.40 0.0 0 0 265.72 249.64
  Q 267.12 248.25 267.27 246.03
  A 1.64 1.63 3.0 0 0 265.69 244.28
  Z"
/>
<path fill="#FFFFFF" d="
  M 114.01 169.48
  C 118.14 167.56 126.01 166.34 127.63 172.29
  Q 129.16 177.88 130.71 183.49
  C 133.99 195.35 144.09 206.91 157.24 205.96
  Q 158.90 205.85 163.48 205.07
  A 0.38 0.38 0.0 0 1 163.92 205.50
  Q 163.70 207.25 162.01 208.50
  C 145.21 220.82 126.44 201.80 121.53 186.28
  A 1.51 1.46 9.5 0 0 120.97 185.52
  C 118.05 183.46 114.98 182.27 112.81 178.87
  C 105.76 167.86 111.45 156.16 122.28 151.00
  C 143.20 141.04 154.42 165.07 156.28 181.49
  C 156.46 183.07 154.90 185.72 153.82 183.27
  C 147.66 169.24 140.79 155.05 122.53 158.76
  C 116.93 159.90 113.47 163.44 113.55 169.18
  A 0.33 0.32 77.8 0 0 114.01 169.48
  Z"
/>
<path fill="#FFFFFF" d="
  M 342.75 169.43
  Q 343.69 160.33 334.89 158.59
  C 316.79 154.99 309.97 169.06 303.27 182.91
  A 1.73 1.71 -73.0 0 1 301.49 183.87
  C 301.24 183.83 300.63 182.64 300.66 182.27
  Q 301.71 169.73 308.70 158.95
  C 324.40 134.72 359.24 159.04 342.02 181.16
  C 340.45 183.17 338.16 184.20 336.06 185.82
  A 1.64 1.61 79.8 0 0 335.52 186.61
  C 330.54 202.36 311.09 221.15 294.43 208.07
  Q 293.07 207.00 292.87 205.60
  A 0.39 0.38 -88.4 0 1 293.32 205.17
  Q 311.30 208.38 321.51 193.50
  C 326.51 186.21 327.80 179.41 330.19 171.72
  C 331.97 165.97 338.47 166.72 342.30 169.63
  Q 342.70 169.93 342.75 169.43
  Z"
/>
<path fill="#000000" d="
  m 205.2529 193.6799
  a 15.55 14.94 94.6 0 1 191.6081 176.9818
  a 15.55 14.94 94.6 0 1 207.7471 162.6801
  a 15.55 14.94 94.6 0 1 221.3919 179.3782
  a 15.55 14.94 94.6 0 1 205.2529 193.6799
  z
  m 212.10 170.14
  c 203.68 164.41 192.42 175.57 198.27 179.48
  a 0.44 0.43 -61.2 0 0 198.91 179.29
  c 199.61 177.64 199.93 175.40 201.28 174.20
  c 207.48 168.69 212.93 174.34 214.53 180.67
  a 0.37 0.37 0.0 0 0 215.09 180.88
  c 218.67 178.48 214.64 171.87 212.10 170.14
  z"
/>
<path fill="#000000" d="
  m 250.6122 193.8323
  a 15.68 15.05 96.4 0 1 237.4038 176.5724
  a 15.68 15.05 96.4 0 1 254.1078 162.6677
  a 15.68 15.05 96.4 0 1 267.3162 179.9276
  a 15.68 15.05 96.4 0 1 250.6122 193.8323
  z
  m 261.80 174.87
  c 255.74 160.02 237.03 174.21 243.65 180.24
  a 0.46 0.46 0.0 0 0 244.34 180.16
  c 245.24 178.85 245.37 176.98 246.06 175.84
  c 249.87 169.49 258.45 172.40 259.89 179.08
  a 0.79 0.79 0.0 0 0 260.49 179.68
  c 262.73 180.15 262.36 176.22 261.80 174.87
  z"
/>
<path fill="#ffffff" d="
  m 212.10 170.14
  c 214.64 171.87 218.67 178.48 215.09 180.88
  a 0.37 0.37 0.0 0 1 214.53 180.67
  c 212.93 174.34 207.48 168.69 201.28 174.20
  c 199.93 175.40 199.61 177.64 198.91 179.29
  a 0.44 0.43 -61.2 0 1 198.27 179.48
  c 192.42 175.57 203.68 164.41 212.10 170.14
  z"
/>
<path fill="#ffffff" d="
  m 243.65 180.24
  c 237.03 174.21 255.74 160.02 261.80 174.87
  c 262.36 176.22 262.73 180.15 260.49 179.68
  a 0.79 0.79 0.0 0 1 259.89 179.08
  c 258.45 172.40 249.87 169.49 246.06 175.84
  c 245.37 176.98 245.24 178.85 244.34 180.16
  a 0.46 0.46 0.0 0 1 243.65 180.24
  z"
/>
<path fill="#000000" d="
  m 223.07 206.67
  c 226.96 209.16 226.80 218.17 226.16 222.66
  a 0.37 0.37 0.0 0 1 225.46 222.78
  q 222.70 217.39 218.01 213.34
  c 213.15 209.16 218.46 203.72 223.07 206.67
  z"
/>
<path fill="#000000" d="
  m 231.61 211.53
  c 233.69 200.70 247.01 207.51 239.90 213.41
  q 235.07 217.42 232.24 222.86
  a 0.68 0.68 0.0 0 1 230.96 222.59
  q 230.57 216.97 231.61 211.53
  z"
/>
<path fill="#000000" d="
  m 197.56 244.10
  c 220.23 243.59 243.02 243.58 265.69 244.28
  a 1.64 1.63 3.0 0 1 267.27 246.03
  q 267.12 248.25 265.72 249.64
  a 1.40 1.40 0.0 0 1 264.73 250.05
  q 229.72 250.52 194.74 249.93
  c 191.76 249.88 190.22 248.44 191.54 245.47
  a 1.07 1.07 0.0 0 1 192.24 244.88
  q 194.88 244.16 197.56 244.10
  z"
/>
</svg>
