<?xml version="1.0" encoding="UTF-8" standalone="no"?>
<!DOCTYPE svg PUBLIC "-//W3C//DTD SVG 1.1//EN" "http://www.w3.org/Graphics/SVG/1.1/DTD/svg11.dtd">
<svg xmlns="http://www.w3.org/2000/svg" version="1.1" viewBox="0 0 400 400">
<rect width="100%" height="100%" fill="#ffffff" />
<g fill="#1976D2">
<path d="
  M 131.88 265.35
  Q 131.74 314.05 131.75 362.75
  C 131.75 369.56 136.59 374.63 142.70 376.95
  A 0.42 0.42 0.0 0 1 142.55 377.77
  L 63.27 378.08
  A 0.51 0.51 0.0 0 1 63.10 377.08
  C 69.50 374.85 77.44 370.35 77.45 362.61
  Q 77.58 255.68 77.82 148.75
  C 77.85 132.21 88.06 120.77 103.84 117.67
  Q 104.33 117.57 104.38 117.08
  C 107.71 82.62 129.94 57.42 161.03 44.18
  A 0.40 0.39 55.6 0 0 161.15 43.53
  Q 156.63 39.18 151.03 37.02
  C 150.15 36.68 149.54 36.04 149.14 35.28
  Q 148.87 34.76 149.39 34.49
  Q 151.34 33.48 152.26 33.28
  C 181.12 27.20 214.98 27.93 242.46 38.76
  C 273.82 51.12 292.11 85.03 295.08 117.33
  Q 295.13 117.84 295.63 117.88
  C 307.55 118.97 317.70 127.46 321.27 138.60
  Q 322.73 143.16 322.73 153.18
  Q 322.77 257.42 322.74 361.66
  C 322.74 370.76 327.30 373.30 334.49 377.07
  A 0.40 0.40 0.0 0 1 334.31 377.82
  L 256.25 378.07
  A 0.47 0.47 0.0 0 1 256.06 377.16
  C 262.45 374.48 267.80 369.15 267.72 361.68
  Q 267.16 313.84 267.94 265.36
  A 0.52 0.52 0.0 0 0 266.99 265.07
  L 199.83 367.68
  A 0.26 0.25 44.6 0 1 199.40 367.68
  Q 167.45 318.02 134.77 268.60
  C 134.29 267.87 133.40 265.84 132.53 265.06
  Q 131.88 264.48 131.88 265.35
  Z
  M 243.31 201.19
  Q 232.89 194.14 240.18 183.71
  C 246.23 175.04 254.73 164.40 257.84 154.57
  C 264.96 132.05 241.96 117.35 223.38 130.60
  C 215.11 136.50 207.89 142.65 197.66 135.34
  Q 191.23 130.76 185.69 127.80
  C 170.72 119.82 151.33 120.87 143.27 137.81
  C 134.69 155.83 150.31 172.22 159.74 185.73
  C 163.02 190.43 163.51 194.39 159.16 198.44
  C 153.34 203.86 152.01 207.87 151.69 215.89
  C 150.84 237.02 166.72 252.49 187.49 252.68
  C 199.15 252.79 214.61 253.97 224.28 251.09
  C 235.81 247.66 244.37 238.82 247.42 227.11
  C 249.24 220.11 250.29 205.90 243.31 201.19
  Z
  M 117.11 176.50
  Q 103.35 171.30 98.83 157.68
  C 96.18 149.71 100.89 141.59 109.62 141.53
  C 115.71 141.49 120.62 147.01 123.33 152.04
  C 123.81 152.94 124.15 154.79 125.19 155.78
  Q 125.69 156.26 125.81 155.58
  C 127.98 143.67 125.95 132.32 112.97 128.03
  C 105.35 125.51 96.16 127.56 90.83 133.70
  Q 84.16 141.39 87.09 152.86
  C 90.79 167.32 102.73 178.37 116.81 182.50
  Q 119.15 183.18 120.72 182.81
  C 123.22 182.20 126.54 179.65 124.51 176.64
  A 1.77 1.76 -34.7 0 0 122.01 176.20
  C 120.51 177.28 118.89 177.18 117.11 176.50
  Z
  M 279.77 134.26
  C 273.84 140.79 274.13 146.76 274.30 154.62
  A 0.61 0.61 0.0 0 0 275.34 155.03
  Q 275.99 154.35 276.39 153.28
  Q 278.90 146.46 284.72 143.03
  C 293.57 137.81 301.80 143.79 302.29 153.32
  C 302.85 163.95 287.28 180.25 275.90 175.88
  A 1.04 1.03 -74.7 0 0 274.51 176.68
  L 273.86 180.69
  Q 273.76 181.32 274.29 181.69
  Q 278.37 184.51 283.10 182.88
  C 298.51 177.58 318.75 159.31 313.09 140.84
  C 308.32 125.28 290.14 122.86 279.77 134.26
  Z"
/>
<path d="
  M 184.31 146.94
  C 189.35 151.73 193.06 159.08 188.89 165.46
  Q 186.45 169.19 181.72 169.94
  C 172.97 171.34 163.71 162.14 159.50 155.25
  C 156.45 150.25 156.82 143.57 163.28 141.71
  Q 175.20 138.27 184.31 146.94
  Z"
/>
<path d="
  M 230.30 142.55
  C 236.59 141.51 244.68 146.17 243.78 153.42
  C 242.78 161.46 232.07 168.01 224.97 169.73
  C 218.69 171.25 212.18 167.88 211.85 160.95
  C 211.41 151.64 222.11 143.92 230.30 142.55
  Z"
/>
<path d="
  M 209.91 182.08
  C 213.21 181.39 218.30 182.54 219.79 186.15
  Q 220.04 186.75 219.45 187.04
  C 210.42 191.39 204.78 193.44 198.67 201.43
  Q 198.32 201.89 198.03 201.38
  C 194.81 195.70 189.22 188.82 182.43 187.60
  A 0.88 0.87 28.9 0 1 181.99 186.09
  Q 184.63 183.67 187.26 182.26
  C 190.47 180.55 196.38 185.55 198.16 187.64
  Q 199.13 188.78 200.15 187.69
  Q 204.37 183.23 209.91 182.08
  Z"
/>
</g>
</svg>
